
        <svg width="400px" height="400px" viewBox="0 0 400 400" version="1.1" xmlns="http://www.w3.org/2000/svg" xmlns:xlink="http://www.w3.org/1999/xlink">
          <defs>
            <linearGradient x1="0%" y1="50%" x2="100%" y2="50%" id="shadeGradientLight">
              <stop stop-color="#fadad1" offset="0%"></stop>
              <stop stop-color="#f9cbbe" offset="16.67%"></stop>
              <stop stop-color="#8931b9" offset="33.33%"></stop>
              <stop stop-color="#232530" offset="50%"></stop>
              <stop stop-color="#1c1e26" offset="66.67%"></stop>
              <stop stop-color="#1a1c23" offset="83.33%"></stop>
              <stop stop-color="#232530" offset="100%"></stop>
            </linearGradient>
            <linearGradient x1="0%" y1="50%" x2="100%" y2="50%" id="shadeGradientDark">
              <stop stop-color="#1a1c23" offset="0%"></stop>
              <stop stop-color="#1c1e26" offset="16.67%"></stop>
              <stop stop-color="#8931b9" offset="33.33%"></stop>
              <stop stop-color="#2e303e" offset="50%"></stop>
              <stop stop-color="#6c6f93" offset="66.67%"></stop>
              <stop stop-color="#989ab3" offset="83.33%"></stop>
              <stop stop-color="#f0f1f4" offset="100%"></stop>
            </linearGradient>
          </defs>
          <g id="light">
            <rect fill="#fdf0ed" x="0" y="0" width="400" height="200"></rect>
            <rect fill="#da103f" x="28" y="28" width="74" height="37"></rect>
            <rect fill="#dc3318" x="118" y="28" width="74" height="37"></rect>
            <rect fill="#f77d26" x="208" y="28" width="74" height="37"></rect>
            <rect fill="#07da8c" x="298" y="28" width="74" height="37"></rect>
            <rect fill="#1eaeae" x="28" y="81" width="74" height="37"></rect>
            <rect fill="#1d8991" x="118" y="81" width="74" height="37"></rect>
            <rect fill="#8931b9" x="208" y="81" width="74" height="37"></rect>
            <rect fill="#e84a72" x="298" y="81" width="74" height="37"></rect>
            <rect fill="url(#shadeGradientLight)" x="28" y="134" width="344" height="37"></rect>
          </g>
          <g id="dark" transform="translate(0.000000, 200.000000)">
            <rect fill="#16161c" x="0" y="0" width="400" height="200"></rect>
            <rect fill="#e95678" x="28" y="28" width="74" height="37"></rect>
            <rect fill="#f09383" x="118" y="28" width="74" height="37"></rect>
            <rect fill="#fac29a" x="208" y="28" width="74" height="37"></rect>
            <rect fill="#09f7a0" x="298" y="28" width="74" height="37"></rect>
            <rect fill="#30fdff" x="28" y="81" width="74" height="37"></rect>
            <rect fill="#21bfc2" x="118" y="81" width="74" height="37"></rect>
            <rect fill="#b877db" x="208" y="81" width="74" height="37"></rect>
            <rect fill="#f98fd1" x="298" y="81" width="74" height="37"></rect>
            <rect fill="url(#shadeGradientDark)" x="28" y="134" width="344" height="37"></rect>
          </g>
        </svg>
      